<svg width="286" height="157" viewBox="0 0 286 157" fill="none" xmlns="http://www.w3.org/2000/svg">
<foreignObject x="-22.5" y="-22.5" width="330.552" height="202"><div xmlns="http://www.w3.org/1999/xhtml" style="backdrop-filter:blur(11.25px);clip-path:url(#bgblur_1_4_17663_clip_path);height:100%;width:100%"></div></foreignObject><g data-figma-bg-blur-radius="22.5">
<g clip-path="url(#clip0_4_17663)">
<path d="M0.5 8.5C0.5 4.08172 4.08172 0.5 8.5 0.5H277.052C281.471 0.5 285.052 4.08172 285.052 8.5V148.5C285.052 152.918 281.471 156.5 277.052 156.5H8.5C4.08172 156.5 0.5 152.918 0.5 148.5V8.5Z" fill="black" fill-opacity="0.1"/>
<path opacity="0.5" d="M9.5 14L9.50001 129.5" stroke="#E8E8E8" stroke-width="0.5625" stroke-dasharray="0.66 0.66"/>
<path opacity="0.5" d="M36.1552 14L36.1552 129.5" stroke="#E8E8E8" stroke-width="0.5625" stroke-dasharray="0.66 0.66"/>
<path opacity="0.5" d="M62.8105 14L62.8105 129.5" stroke="#E8E8E8" stroke-width="0.5625" stroke-dasharray="0.66 0.66"/>
<path opacity="0.5" d="M89.4657 14L89.4657 129.5" stroke="#E8E8E8" stroke-width="0.5625" stroke-dasharray="0.66 0.66"/>
<path opacity="0.5" d="M116.121 14L116.121 129.5" stroke="#E8E8E8" stroke-width="0.5625" stroke-dasharray="0.66 0.66"/>
<path opacity="0.5" d="M142.776 14L142.776 129.5" stroke="#E8E8E8" stroke-width="0.5625" stroke-dasharray="0.66 0.66"/>
<path opacity="0.5" d="M169.431 14L169.431 129.5" stroke="#E8E8E8" stroke-width="0.5625" stroke-dasharray="0.66 0.66"/>
<path opacity="0.5" d="M196.087 14L196.087 129.5" stroke="#E8E8E8" stroke-width="0.5625" stroke-dasharray="0.66 0.66"/>
<path opacity="0.5" d="M222.742 14L222.742 129.5" stroke="#E8E8E8" stroke-width="0.5625" stroke-dasharray="0.66 0.66"/>
<path opacity="0.5" d="M249.397 14L249.397 129.5" stroke="#E8E8E8" stroke-width="0.5625" stroke-dasharray="0.66 0.66"/>
<path opacity="0.5" d="M276.052 14L276.052 129.5" stroke="#E8E8E8" stroke-width="0.5625" stroke-dasharray="0.66 0.66"/>
<path d="M9.65948 50.5625H275.891" stroke="#CDDBE1" stroke-width="0.5625" stroke-dasharray="2.25 2.25"/>
<path d="M9.65948 71.9375H275.891" stroke="#CDDBE1" stroke-width="0.5625" stroke-dasharray="2.25 2.25"/>
<path d="M9.65948 93.3125H275.891" stroke="#CDDBE1" stroke-width="0.5625" stroke-dasharray="2.25 2.25"/>
<path d="M9.70001 50.75H219.929" stroke="#CDDBE1" stroke-width="2.25"/>
<path d="M9.65851 71.9375H214.342" stroke="#9AAEB5" stroke-width="2.25"/>
<path d="M9.65851 93.3125H158.519" stroke="#5D767E" stroke-width="2.25"/>
<rect x="157.237" y="88.1094" width="36.7812" height="10.5312" rx="2.09357" fill="white"/>
<rect x="157.237" y="88.1094" width="36.7812" height="10.5312" rx="2.09357" stroke="#E8E8E8" stroke-width="0.28125"/>
<path d="M159.626 91.125C159.626 90.5037 160.13 90 160.751 90H165.251C165.873 90 166.376 90.5037 166.376 91.125V95.625C166.376 96.2463 165.873 96.75 165.251 96.75H160.751C160.13 96.75 159.626 96.2463 159.626 95.625V91.125Z" fill="#FAFAFA"/>
<path d="M161.314 92.25C161.314 91.9393 161.566 91.6875 161.876 91.6875H164.126C164.437 91.6875 164.689 91.9393 164.689 92.25V94.5C164.689 94.8107 164.437 95.0625 164.126 95.0625H161.876C161.566 95.0625 161.314 94.8107 161.314 94.5V92.25Z" fill="#5D767E"/>
<path d="M171.772 94.375H171.209L170.945 93.4919H169.561L169.297 94.375H168.751V94.3187L169.882 90.6062H170.641L171.772 94.3187V94.375ZM169.719 92.9744H170.787L170.287 91.3206H170.219L169.719 92.9744ZM173.122 94.375L171.991 90.6625V90.6062H172.554L173.471 93.6606H173.516L174.438 90.6062H174.984V90.6625L173.859 94.375H173.122ZM175.491 94.375V90.6062H177.926V91.135H176.053V92.215H177.814V92.7325H176.053V93.8462H177.926V94.375H175.491ZM178.725 94.375V90.6062H180.165C180.885 90.6062 181.341 91.0619 181.341 91.72C181.341 92.2206 181.049 92.62 180.61 92.7606V92.8112L181.285 94.3187V94.375H180.689L179.997 92.8225H179.288V94.375H178.725ZM179.288 92.3275H180.149C180.531 92.3275 180.773 92.0462 180.773 91.72C180.773 91.3937 180.531 91.1237 180.149 91.1237H179.288V92.3275ZM184.711 94.375H184.148L183.884 93.4919H182.5L182.236 94.375H181.69V94.3187L182.821 90.6062H183.58L184.711 94.3187V94.375ZM182.658 92.9744H183.727L183.226 91.3206H183.158L182.658 92.9744ZM186.309 94.4313C185.465 94.4313 185.038 93.5481 185.038 92.4962C185.038 91.3994 185.516 90.55 186.393 90.55C187.091 90.55 187.49 90.9831 187.659 91.7875H187.108C187.012 91.3712 186.821 91.0675 186.393 91.0675C185.842 91.0675 185.611 91.6919 185.611 92.4906C185.611 93.2894 185.876 93.9137 186.416 93.9137C186.787 93.9137 187.169 93.5819 187.169 93.1937V92.8787H186.168V92.3725H187.676V94.375H187.169V93.8631H187.136C186.973 94.2962 186.697 94.4313 186.309 94.4313ZM188.43 94.375V90.6062H190.866V91.135H188.992V92.215H190.753V92.7325H188.992V93.8462H190.866V94.375H188.43Z" fill="#515255"/>
<rect x="222.019" y="45.3594" width="32.3438" height="10.5312" rx="2.09357" fill="white"/>
<rect x="222.019" y="45.3594" width="32.3438" height="10.5312" rx="2.09357" stroke="#E8E8E8" stroke-width="0.28125"/>
<path d="M225.19 48.375C225.19 47.7537 225.693 47.25 226.315 47.25H230.815C231.436 47.25 231.94 47.7537 231.94 48.375V52.875C231.94 53.4963 231.436 54 230.815 54H226.315C225.693 54 225.19 53.4963 225.19 52.875V48.375Z" fill="#FAFAFA"/>
<path d="M226.877 49.5C226.877 49.1893 227.129 48.9375 227.44 48.9375H229.69C230 48.9375 230.252 49.1893 230.252 49.5V51.75C230.252 52.0607 230 52.3125 229.69 52.3125H227.44C227.129 52.3125 226.877 52.0607 226.877 51.75V49.5Z" fill="#CDDBE1"/>
<path d="M234.674 51.625V51.1075H235.541V48.3737H234.674V47.8562H236.969V48.3737H236.103V51.1075H236.969V51.625H234.674ZM237.819 51.625V47.8562H238.832C239.844 47.8562 240.407 48.6381 240.407 49.7406C240.407 50.8431 239.844 51.625 238.832 51.625H237.819ZM238.382 51.0962H238.832C239.496 51.0962 239.822 50.5956 239.822 49.7406C239.822 48.8856 239.496 48.385 238.832 48.385H238.382V51.0962ZM241.054 51.625V47.8562H243.49V48.385H241.617V49.465H243.377V49.9825H241.617V51.0962H243.49V51.625H241.054ZM247.04 51.625H246.477L246.213 50.7419H244.829L244.565 51.625H244.019V51.5687L245.15 47.8562H245.909L247.04 51.5687V51.625ZM244.986 50.2244H246.055L245.555 48.5706H245.487L244.986 50.2244ZM247.636 51.625V47.8562H248.199V51.0962H250.072V51.625H247.636Z" fill="#515255"/>
<rect x="212.422" y="66.3594" width="23.9062" height="10.4062" rx="2.09357" fill="white"/>
<rect x="212.422" y="66.3594" width="23.9062" height="10.4062" rx="2.09357" stroke="#E8E8E8" stroke-width="0.28125"/>
<path d="M214.875 69.3125C214.875 68.6912 215.379 68.1875 216 68.1875H220.5C221.121 68.1875 221.625 68.6912 221.625 69.3125V73.8125C221.625 74.4338 221.121 74.9375 220.5 74.9375H216C215.379 74.9375 214.875 74.4338 214.875 73.8125V69.3125Z" fill="#FAFAFA"/>
<path d="M216.562 70.4375C216.562 70.1268 216.814 69.875 217.125 69.875H219.375C219.686 69.875 219.938 70.1268 219.938 70.4375V72.6875C219.938 72.9982 219.686 73.25 219.375 73.25H217.125C216.814 73.25 216.562 72.9982 216.562 72.6875V70.4375Z" fill="#9AAEB5"/>
<path d="M225.231 72.5625V70.9425L224.044 68.85V68.7937H224.634L225.489 70.335H225.54L226.395 68.7937H226.974V68.85L225.793 70.9312V72.5625H225.231ZM228.741 72.6188C227.875 72.6188 227.391 71.8594 227.391 70.6781C227.391 69.4969 227.875 68.7375 228.741 68.7375C229.607 68.7375 230.091 69.4969 230.091 70.6781C230.091 71.8594 229.607 72.6188 228.741 72.6188ZM227.976 70.6781C227.976 71.6287 228.235 72.1012 228.741 72.1012C229.247 72.1012 229.506 71.6287 229.506 70.6781C229.506 69.7275 229.247 69.255 228.741 69.255C228.235 69.255 227.976 69.7275 227.976 70.6781ZM231.976 72.6188C231.301 72.6188 230.727 72.2194 230.727 71.37V68.7937H231.29V71.3587C231.29 71.8875 231.605 72.09 231.976 72.09C232.347 72.09 232.662 71.8875 232.662 71.3587V68.7937H233.225V71.37C233.225 72.2194 232.651 72.6188 231.976 72.6188Z" fill="#515255"/>
<path d="M13.3744 143.375H12.7853L12.3972 142.148H10.6159L10.2278 143.375H9.65248V143.306L11.0941 138.731H11.9328L13.3744 143.306V143.375ZM10.7822 141.608H12.2308L11.5516 139.445H11.4615L10.7822 141.608ZM15.5375 143.444C14.4701 143.444 13.9364 142.869 13.881 141.857H14.4562C14.5325 142.529 14.8166 142.904 15.5444 142.904C16.2236 142.904 16.5217 142.522 16.5217 142.12C16.5217 141.774 16.3345 141.49 15.9187 141.4L15.087 141.233C14.3176 141.074 13.9919 140.575 13.9919 139.979C13.9919 139.265 14.484 138.662 15.482 138.662C16.5286 138.662 16.993 139.306 17.0415 140.187H16.4732C16.4246 139.674 16.1959 139.203 15.4682 139.203C14.8721 139.203 14.581 139.535 14.581 139.944C14.581 140.291 14.7889 140.568 15.2117 140.658L16.0504 140.831C16.7296 140.97 17.1039 141.427 17.1039 142.093C17.1039 142.841 16.591 143.444 15.5375 143.444ZM19.1976 143.375V141.4L17.6797 138.801V138.731H18.2966L19.461 140.755H19.5234L20.6878 138.731H21.2908V138.801L19.7798 141.386V143.375H19.1976ZM21.8111 143.375V138.731H22.8092L23.433 141.476H23.5023L24.1261 138.731H25.1242V143.375H24.5905V139.341H24.5212L23.8835 142.127H23.0587L22.4141 139.341H22.3448V143.375H21.8111ZM25.797 143.375V138.731H26.7951L27.4189 141.476H27.4882L28.112 138.731H29.1101V143.375H28.5764V139.341H28.5071L27.8694 142.127H27.0446L26.4 139.341H26.3307V143.375H25.797ZM29.9215 143.375V138.731H32.9019V139.279H30.5037V140.762H32.7633V141.303H30.5037V142.827H32.9019V143.375H29.9215ZM35.1273 143.375V139.279H33.7203V138.731H37.1304V139.279H35.7234V143.375H35.1273ZM37.8933 143.375V138.731H39.6746C40.5479 138.731 41.1162 139.272 41.1162 140.104C41.1162 140.741 40.735 141.247 40.1598 141.407V141.469L41.0677 143.306V143.375H40.4439L39.5013 141.469H38.4755V143.375H37.8933ZM38.4755 140.942H39.6538C40.2152 140.942 40.5271 140.533 40.5271 140.104C40.5271 139.653 40.2152 139.272 39.6538 139.272H38.4755V140.942ZM41.9693 143.375V142.834H43.106V139.272H41.9693V138.731H44.8249V139.272H43.6882V142.834H44.8249V143.375H41.9693ZM47.4523 143.444C46.3849 143.444 45.768 142.453 45.768 141.053C45.768 139.653 46.3988 138.662 47.4523 138.662C48.3187 138.662 48.8732 139.279 49.0187 140.388H48.4365C48.3256 139.66 48.0068 139.203 47.4731 139.203C46.7661 139.203 46.3849 139.909 46.3849 141.046C46.3849 142.183 46.7661 142.904 47.4662 142.904C48.0068 142.904 48.3395 142.502 48.4365 141.76H49.0256C48.8801 142.89 48.3256 143.444 47.4523 143.444ZM53.2333 143.375H52.6442L52.256 142.148H50.4748L50.0866 143.375H49.5113V143.306L50.953 138.731H51.7917L53.2333 143.306V143.375ZM50.6411 141.608H52.0897L51.4105 139.445H51.3203L50.6411 141.608ZM53.9893 143.375V138.731H54.5785V142.827H56.9489V143.375H53.9893Z" fill="#F2F2F2"/>
<path d="M234.104 143.444C233.037 143.444 232.503 142.869 232.447 141.857H233.023C233.099 142.529 233.383 142.904 234.111 142.904C234.79 142.904 235.088 142.522 235.088 142.12C235.088 141.774 234.901 141.49 234.485 141.4L233.653 141.233C232.884 141.074 232.558 140.575 232.558 139.979C232.558 139.265 233.05 138.662 234.049 138.662C235.095 138.662 235.559 139.306 235.608 140.187H235.04C234.991 139.674 234.762 139.203 234.035 139.203C233.439 139.203 233.147 139.535 233.147 139.944C233.147 140.291 233.355 140.568 233.778 140.658L234.617 140.831C235.296 140.97 235.67 141.427 235.67 142.093C235.67 142.841 235.157 143.444 234.104 143.444ZM237.764 143.375V141.4L236.246 138.801V138.731H236.863L238.027 140.755H238.09L239.254 138.731H239.857V138.801L238.346 141.386V143.375H237.764ZM240.378 143.375V138.731H241.376L241.999 141.476H242.069L242.693 138.731H243.691V143.375H243.157V139.341H243.088L242.45 142.127H241.625L240.981 139.341H240.911V143.375H240.378ZM244.364 143.375V138.731H245.362L245.985 141.476H246.055L246.678 138.731H247.677V143.375H247.143V139.341H247.074L246.436 142.127H245.611L244.967 139.341H244.897V143.375H244.364ZM248.488 143.375V138.731H251.468V139.279H249.07V140.762H251.33V141.303H249.07V142.827H251.468V143.375H248.488ZM253.694 143.375V139.279H252.287V138.731H255.697V139.279H254.29V143.375H253.694ZM256.46 143.375V138.731H258.241C259.114 138.731 259.683 139.272 259.683 140.104C259.683 140.741 259.302 141.247 258.726 141.407V141.469L259.634 143.306V143.375H259.01L258.068 141.469H257.042V143.375H256.46ZM257.042 140.942H258.22C258.782 140.942 259.094 140.533 259.094 140.104C259.094 139.653 258.782 139.272 258.22 139.272H257.042V140.942ZM260.536 143.375V142.834H261.672V139.272H260.536V138.731H263.391V139.272H262.255V142.834H263.391V143.375H260.536ZM266.019 143.444C264.951 143.444 264.335 142.453 264.335 141.053C264.335 139.653 264.965 138.662 266.019 138.662C266.885 138.662 267.44 139.279 267.585 140.388H267.003C266.892 139.66 266.573 139.203 266.04 139.203C265.333 139.203 264.951 139.909 264.951 141.046C264.951 142.183 265.333 142.904 266.033 142.904C266.573 142.904 266.906 142.502 267.003 141.76H267.592C267.447 142.89 266.892 143.444 266.019 143.444ZM271.8 143.375H271.211L270.823 142.148H269.041L268.653 143.375H268.078V143.306L269.519 138.731H270.358L271.8 143.306V143.375ZM269.208 141.608H270.656L269.977 139.445H269.887L269.208 141.608ZM272.556 143.375V138.731H273.145V142.827H275.515V143.375H272.556Z" fill="#F2F2F2"/>
</g>
<path d="M0.5 8.5C0.5 4.08172 4.08172 0.5 8.5 0.5H277.052C281.471 0.5 285.052 4.08172 285.052 8.5V148.5C285.052 152.918 281.471 156.5 277.052 156.5H8.5C4.08172 156.5 0.5 152.918 0.5 148.5V8.5Z" stroke="#F2F2F2" stroke-opacity="0.1"/>
</g>
<defs>
<clipPath id="bgblur_1_4_17663_clip_path" transform="translate(22.5 22.5)"><path d="M0.5 8.5C0.5 4.08172 4.08172 0.5 8.5 0.5H277.052C281.471 0.5 285.052 4.08172 285.052 8.5V148.5C285.052 152.918 281.471 156.5 277.052 156.5H8.5C4.08172 156.5 0.5 152.918 0.5 148.5V8.5Z"/>
</clipPath><clipPath id="clip0_4_17663">
<path d="M0.5 8.5C0.5 4.08172 4.08172 0.5 8.5 0.5H277.052C281.471 0.5 285.052 4.08172 285.052 8.5V148.5C285.052 152.918 281.471 156.5 277.052 156.5H8.5C4.08172 156.5 0.5 152.918 0.5 148.5V8.5Z" fill="white"/>
</clipPath>
</defs>
</svg>
