<svg width="1354" height="527" viewBox="0 0 1354 527" fill="none" xmlns="http://www.w3.org/2000/svg">
<path fill-rule="evenodd" clip-rule="evenodd" d="M463.054 221.094V13.5194C463.054 6.57448 457.39 0.944531 450.402 0.944531H13.1627C6.1748 0.944531 0.51001 6.5745 0.51001 13.5194V512.935C0.51001 519.88 6.1748 525.51 13.1627 525.51H450.402C457.39 525.51 463.054 519.88 463.054 512.935V304.926C463.054 293.641 472.143 284.492 483.499 284.492H869.451C880.806 284.492 889.966 293.641 889.966 304.926V512.501C889.966 519.445 895.63 525.075 902.618 525.075H1339.86C1346.85 525.075 1352.51 519.445 1352.51 512.501V13.0849C1352.51 6.13996 1346.85 0.51001 1339.86 0.51001H902.618C895.63 0.51001 889.966 6.13996 889.966 13.0849V221.077C889.966 232.372 880.753 241.528 869.388 241.528H484.026C472.379 241.528 463.054 232.669 463.054 221.094Z" stroke="#D7E5EB" stroke-width="1.02"/>
</svg>
